<svg xmlns="http://www.w3.org/2000/svg" viewBox="0 0 28.556 28.556">
  <defs>
    <style>
      .cls-1 {
        fill: #676767;
        stroke: #676767;
      }
    </style>
  </defs>
  <g id="calendar-month-day-booking-date" transform="translate(0.5 0.5)">
    <path id="Path_542" data-name="Path 542" class="cls-1" d="M28.556,11.908V3.87H23.963V1H22.815V3.87H6.741V1H5.593V3.87H1V28.556H28.556ZM2.148,5.019H5.593v2.87H6.741V5.019H22.815v2.87h1.148V5.019h3.444v5.741H2.148Zm0,22.389v-15.5H27.408v15.5Z" transform="translate(-1 -1)"/>
    <path id="Path_543" data-name="Path 543" class="cls-1" d="M6,35.482H27.815V24H6Zm1.148-3.444h2.3v2.3h-2.3Zm16.074-1.148h-2.3v-2.3h2.3Zm1.148-2.3h2.3v2.3h-2.3ZM14.037,32.037h2.3v2.3h-2.3Zm-1.148,2.3h-2.3v-2.3h2.3Zm3.444-3.444h-2.3v-2.3h2.3Zm1.148-2.3h2.3v2.3h-2.3Zm0,3.444h2.3v2.3h-2.3Zm3.444,0h2.3v2.3h-2.3Zm0-4.593v-2.3h2.3v2.3Zm-1.148,0h-2.3v-2.3h2.3Zm-3.444,0h-2.3v-2.3h2.3Zm-3.444,0h-2.3v-2.3h2.3Zm0,1.148v2.3h-2.3v-2.3Zm-3.444,2.3h-2.3v-2.3h2.3Zm14.926,3.444v-2.3h2.3v2.3Zm2.3-6.889h-2.3v-2.3h2.3Zm-17.222-2.3v2.3h-2.3v-2.3Z" transform="translate(-3.13 -10.796)"/>
  </g>
</svg>
