<svg id="outline-contact_mail-24px" xmlns="http://www.w3.org/2000/svg" viewBox="0 0 50 50">
  <defs>
    <style>
      .cls-1 {
        fill: none;
      }
    </style>
  </defs>
  <g id="Bounding_Boxes">
    <rect id="Rectangle_1083" data-name="Rectangle 1083" class="cls-1" width="50" height="50"/>
  </g>
  <g id="Outline" transform="translate(0 6.25)">
    <g id="Group_258" data-name="Group 258">
      <path id="Path_1001" data-name="Path 1001" d="M45.833,3H4.167A4.179,4.179,0,0,0,0,7.167V36.333A4.179,4.179,0,0,0,4.167,40.5H45.833a4.161,4.161,0,0,0,4.146-4.167L50,7.167A4.179,4.179,0,0,0,45.833,3Zm0,33.333H4.167V7.167H45.833Z" transform="translate(0 -3)"/>
      <path id="Path_1002" data-name="Path 1002" d="M28.583,6H14V16.417H28.583ZM26.5,10.167l-5.208,3.646-5.208-3.646V8.083l5.208,3.646L26.5,8.083Z" transform="translate(15.167 0.25)"/>
      <path id="Path_1003" data-name="Path 1003" d="M12.25,18.5A6.25,6.25,0,1,0,6,12.25,6.268,6.268,0,0,0,12.25,18.5Zm0-8.333a2.083,2.083,0,1,1-2.083,2.083A2.089,2.089,0,0,1,12.25,10.167Z" transform="translate(6.5 0.25)"/>
      <path id="Path_1004" data-name="Path 1004" d="M28,20.468c0-5.208-8.271-7.458-12.5-7.458S3,15.26,3,20.468v2.937H28ZM8.167,19.239A14.818,14.818,0,0,1,15.5,17.156a14.67,14.67,0,0,1,7.333,2.083Z" transform="translate(3.25 7.844)"/>
    </g>
  </g>
</svg>
