<svg xmlns="http://www.w3.org/2000/svg" viewBox="0 0 28.506 28.506">
  <defs>
    <style>
      .cls-1 {
        fill: #676767;
        stroke: #676767;
      }
    </style>
  </defs>
  <g id="time-clock-date-analog-period" transform="translate(0.5 0.5)">
    <path id="Path_711" data-name="Path 711" class="cls-1" d="M14.753,1A13.753,13.753,0,1,0,28.506,14.753,13.769,13.769,0,0,0,14.753,1Zm0,26.36A12.607,12.607,0,1,1,27.36,14.753,12.621,12.621,0,0,1,14.753,27.36Z" transform="translate(-1 -1)"/>
    <path id="Path_712" data-name="Path 712" class="cls-1" d="M21,16.327V7H19.856v9.327a1.141,1.141,0,0,0-.573.987,1.156,1.156,0,0,0,.042.293L14.293,22.64l.81.81,5.032-5.032a1.132,1.132,0,0,0,1.439-1.1A1.143,1.143,0,0,0,21,16.327Z" transform="translate(-6.675 -3.562)"/>
  </g>
</svg>
